<?xml version="1.0" encoding="UTF-8"?>
<svg id="Layer_1" data-name="Layer 1" xmlns="http://www.w3.org/2000/svg" viewBox="0 0 681 166">
  <defs>
    <style>
      .cls-1 {
        fill: #807c7b;
      }

      .cls-1, .cls-2, .cls-3 {
        stroke-width: 0px;
      }

      .cls-2 {
        fill: #141414;
      }

      .cls-3 {
        fill: #c84727;
      }
    </style>
  </defs>
  <path class="cls-2" d="m545,92.12h-44.99v-11.84l26.11-38.44h34.5v37.07h13.16l-.74,13.21h-12.42v13.48h-15.62v-13.48Zm-11.48-36.89l-15.92,23.77h27.4v-23.77h-11.48Z"/>
  <path class="cls-2" d="m586.88,91.94l20.91-13.21c15.82-9.93,20.8-12.93,20.8-17.85,0-3.92-3.08-6.65-10.29-6.65-8.07,0-17.51,2.73-28.13,9.93h-.11v-15.58c10.19-6.38,20.38-8.38,29.62-8.38,18.15,0,28.23,7.74,28.23,19.04,0,10.57-7.43,15.58-25.26,26.42l-9.98,6.1h35.56v13.84h-61.35v-13.66Z"/>
  <path class="cls-3" d="m103.5,45.61c-19.03-17.79-49.95-15.52-67.81,2.33-16.33,16.33-17.41,43.77-6.18,62.64L3.11,149.98l32.39-32.39,17.67-17.66h0c-6.49-6.49-8.52-15.74-6.11-23.98,1.12-3.82,3.18-7.42,6.2-10.43,7.72-7.72,22.85-9.65,32.4-2.18l17.84-17.73Z"/>
  <path class="cls-3" d="m96.07,77.04c.86,2.47,1.32,5.12,1.32,7.88,0,13.26-10.74,24.01-24.01,24.01-6.45,0-12.29-2.54-16.6-6.68L138.8,16.02l-42.73,61.01Z"/>
  <rect class="cls-2" x="357.22" y="41.82" width="16.73" height="63.61"/>
  <polygon class="cls-2" points="395.16 55.53 421.98 55.53 421.98 105.72 439.79 105.72 439.79 55.53 466.67 55.53 466.67 41.82 395.16 41.82 395.16 55.53"/>
  <path class="cls-2" d="m173.42,73.77c0,11.93,8.45,20.19,19.67,20.19s21.16-2.63,21.16-20.19v-31.95h17.27v31.95c0,20.19-11.43,33.73-38.42,33.73-23.75,0-37.34-12.89-37.34-33.73v-31.95h17.67v31.95"/>
  <polygon class="cls-2" points="257.62 41.82 278.27 41.82 312.33 84.09 312.33 41.82 327.82 41.82 327.82 105.43 312.06 105.43 273.07 57.85 273.07 105.43 257.62 105.43 257.62 41.82"/>
  <path class="cls-2" d="m670.47,37.83v-.4c0-2.29-1.75-3.91-4.86-3.91h-5.4v12.41h2.56v-4.18h2.85l2.14,4.18h2.84l-2.64-4.91c1.61-.49,2.5-1.68,2.5-3.18m-7.69-2.02h2.83c1.62,0,2.29.54,2.29,1.75v.13c0,1.08-.68,1.75-2.29,1.75h-2.83v-3.64Z"/>
  <path class="cls-2" d="m665.07,26.9c-7.29,0-12.82,5.53-12.82,12.82s5.53,12.82,12.82,12.82,12.82-5.53,12.82-12.82-5.53-12.82-12.82-12.82m0,23.88c-6.34,0-10.93-4.59-10.93-11.06s4.59-11.06,10.93-11.06,10.93,4.59,10.93,11.06-4.59,11.06-10.93,11.06"/>
  <g>
    <path class="cls-1" d="m155.42,131.99h9.92c3.28,0,5.26,1.35,5.26,3.96,0,1.75-.7,2.99-2.65,3.62,2.02.81,2.99,1.87,2.99,3.73,0,3.26-2.5,4.43-5.96,4.43h-9.56v-15.75Zm8.66,6.3c1.31,0,1.84-.4,1.84-1.42,0-.95-.58-1.35-1.84-1.35h-4v2.77h4Zm.23,5.87c1.39,0,1.93-.45,1.93-1.48,0-.97-.54-1.46-1.93-1.46h-4.23v2.97l4.23-.02Z"/>
    <path class="cls-1" d="m180.42,142.69l-6.91-10.71h5.31l3.89,6.28h.22l3.94-6.28h5.17l-6.88,10.69v5.06h-4.75v-5.04Z"/>
    <path class="cls-1" d="m204.36,131.99h9.29c3.87,0,5.92,2.23,5.92,5.87,0,4.12-2.63,6.01-6.28,6.01h-4.21v3.87h-4.72v-15.75Zm8.46,8.17c1.46,0,2.09-.95,2.09-2.18,0-1.42-.7-2.18-2.14-2.18h-3.69v4.36h3.73Z"/>
    <path class="cls-1" d="m227.23,131.99h7.6l5.47,15.75h-4.95l-1.1-3.26h-6.5l-1.12,3.26h-4.86l5.47-15.75Zm1.66,8.95h4.23l-1.69-4.95h-.85l-1.69,4.95Z"/>
    <path class="cls-1" d="m244.45,131.99h4.72v11.68h8.35l-.18,4.07h-12.89v-15.75Z"/>
    <path class="cls-1" d="m260.61,139.86c0-5.13,3.49-8.35,9-8.35s9,3.22,9,8.35-3.49,8.35-9,8.35-9-3.22-9-8.35Zm13.3,0c0-2.72-1.57-4.34-4.3-4.34s-4.3,1.62-4.3,4.34,1.57,4.34,4.27,4.34,4.32-1.62,4.32-4.34Z"/>
    <path class="cls-1" d="m295.95,131.99h7.6l5.47,15.75h-4.95l-1.1-3.26h-6.5l-1.12,3.26h-4.86l5.47-15.75Zm1.66,8.95h4.23l-1.69-4.95h-.85l-1.69,4.95Z"/>
    <path class="cls-1" d="m313.17,131.99h4.72v11.68h8.35l-.18,4.07h-12.89v-15.75Z"/>
    <path class="cls-1" d="m332.84,136.04h-5.51l.18-4.05h15.41l.18,4.05h-5.51v11.7h-4.75v-11.7Z"/>
    <path class="cls-1" d="m346.19,139.86c0-5.13,3.49-8.35,9-8.35s9,3.22,9,8.35-3.49,8.35-9,8.35-9-3.22-9-8.35Zm13.3,0c0-2.72-1.57-4.34-4.3-4.34s-4.3,1.62-4.3,4.34,1.57,4.34,4.27,4.34,4.32-1.62,4.32-4.34Z"/>
    <path class="cls-1" d="m377.53,131.99h4.9l6.77,8.93h.07v-8.93h4.5v15.75h-4.75l-6.93-9.16h-.07v9.16h-4.5v-15.75Z"/>
    <path class="cls-1" d="m399.39,131.99h13.77l.18,3.82h-9.25v2.16h7.27v3.49h-7.27v2.45h9.52l-.18,3.82h-14.04v-15.75Z"/>
    <path class="cls-1" d="m422.81,136.04h-5.51l.18-4.05h15.41l.18,4.05h-5.51v11.7h-4.75v-11.7Z"/>
    <path class="cls-1" d="m436.5,131.99h5.04l2.56,10.93h.25l3.33-10.93h4.61l3.26,10.93h.25l2.52-10.93h4.81l-4.14,15.75h-6.19l-2.88-9.49h-.14l-2.92,9.49h-6.21l-4.16-15.75Z"/>
    <path class="cls-1" d="m466.22,139.86c0-5.13,3.49-8.35,9-8.35s9,3.22,9,8.35-3.49,8.35-9,8.35-9-3.22-9-8.35Zm13.3,0c0-2.72-1.57-4.34-4.3-4.34s-4.3,1.62-4.3,4.34,1.57,4.34,4.27,4.34,4.32-1.62,4.32-4.34Z"/>
    <path class="cls-1" d="m488.95,131.99h9.18c4.18,0,6.23,1.98,6.23,5.65,0,2.52-1.03,4.23-3.06,5.04l3.73,5.06h-5.35l-2.9-4.14h-3.1v4.14h-4.72v-15.75Zm8.57,7.92c1.57,0,2.14-.88,2.14-2.07s-.56-2.05-2.14-2.05h-3.85v4.12h3.85Z"/>
    <path class="cls-1" d="m509.23,131.99h4.72v5.8h1.93l4.61-5.8h5.31l.02.02-6.03,7.54,6.37,8.17-.02.02h-5.51l-4.77-6.05h-1.91v6.05h-4.72v-15.75Z"/>
    <path class="cls-1" d="m529.37,146.7v-4.32h.02c2.63,1.33,5.2,1.98,7.42,1.98,1.69,0,2.54-.4,2.54-1.19s-.56-.99-3.94-1.53c-3.69-.59-6.14-1.69-6.14-4.86,0-2.95,2.59-5.22,7.65-5.22,2.02,0,4.14.43,6.1,1.26v4.27l-.02.02c-1.87-1.08-4.39-1.75-6.41-1.75-1.8,0-2.52.43-2.52,1.15,0,.92,1.1,1.01,3.87,1.48,3.69.63,6.14,1.66,6.14,4.99,0,2.59-1.94,5.17-7.49,5.17-2.74,0-4.93-.56-7.22-1.46Z"/>
  </g>
</svg>